<?xml version="1.0" standalone="no"?>
<!DOCTYPE svg PUBLIC "-//W3C//DTD SVG 20010904//EN"
 "http://www.w3.org/TR/2001/REC-SVG-20010904/DTD/svg10.dtd">
<svg version="1.0" xmlns="http://www.w3.org/2000/svg"
 width="500.000000pt" height="500.000000pt" viewBox="0 0 500.000000 500.000000"
 preserveAspectRatio="xMidYMid meet">
<metadata>
Created by potrace 1.11, written by Peter Selinger 2001-2013
</metadata>
<g transform="translate(0.000000,500.000000) scale(0.100000,-0.100000)"
fill="#000000" stroke="none">
<path d="M2330 4416 c-3 -2 -32 -7 -65 -10 -33 -3 -71 -7 -85 -10 -14 -3 -38
-8 -55 -11 -117 -23 -186 -43 -315 -93 -380 -146 -703 -407 -922 -747 -138
-213 -256 -516 -284 -730 -3 -27 -8 -59 -11 -70 -12 -52 -14 -340 -4 -435 14
-132 16 -140 51 -283 135 -546 519 -1013 1034 -1257 139 -66 309 -124 421
-145 65 -11 83 -14 156 -25 124 -18 427 -15 539 5 354 64 611 173 870 371 194
148 376 352 494 554 106 181 210 462 232 628 3 26 8 50 10 54 8 12 18 187 18
298 0 106 -9 244 -19 290 -3 14 -8 39 -10 55 -52 301 -210 633 -420 884 -207
248 -494 448 -805 564 -84 31 -152 52 -200 62 -8 2 -36 8 -63 14 -26 6 -64 14
-83 17 -20 3 -46 8 -58 11 -27 6 -420 15 -426 9z"/>
</g>
</svg>
